<svg width="60" height="60" viewBox="0 0 60 60" fill="none" xmlns="http://www.w3.org/2000/svg">
<circle cx="30" cy="30" r="29.5" transform="matrix(-1 0 0 1 60 0)" fill="white" stroke="white"/>
<path d="M15.0003 30.4888C14.9941 30.9167 15.0819 31.3406 15.2573 31.7301C15.4328 32.1196 15.6917 32.465 16.0152 32.7413L29.0076 43.8014C29.1217 43.8779 29.2597 43.9094 29.3952 43.8898C29.5308 43.8702 29.6545 43.8009 29.7427 43.6951C29.831 43.5893 29.8775 43.4544 29.8736 43.3161C29.8697 43.1779 29.8155 43.0459 29.7213 42.9454L16.7401 31.8516C16.4455 31.5981 16.2417 31.2538 16.1601 30.8717C16.2106 30.9287 16.2725 30.9743 16.3417 31.0053C16.4109 31.0364 16.4859 31.0523 16.5616 31.0519H44.4424C44.5903 31.0519 44.7321 30.9926 44.8367 30.887C44.9413 30.7814 45 30.6381 45 30.4888C45 30.3394 44.9413 30.1962 44.8367 30.0906C44.7321 29.985 44.5903 29.9256 44.4424 29.9256H16.5616C16.4859 29.9253 16.4109 29.9412 16.3417 29.9722C16.2725 30.0033 16.2106 30.0488 16.1601 30.1058C16.2417 29.7238 16.4455 29.3794 16.7401 29.126L29.7213 18.0322C29.7868 17.9883 29.8423 17.9309 29.8842 17.8638C29.9262 17.7967 29.9536 17.7215 29.9647 17.6429C29.9758 17.5644 29.9704 17.4844 29.9488 17.4081C29.9272 17.3319 29.8899 17.2611 29.8393 17.2004C29.7887 17.1397 29.7259 17.0905 29.6552 17.056C29.5845 17.0215 29.5073 17.0025 29.4288 17.0002C29.3503 16.9979 29.2722 17.0124 29.1996 17.0428C29.127 17.0731 29.0616 17.1186 29.0076 17.1762L16.0152 28.2362C15.6917 28.5126 15.4328 28.8579 15.2573 29.2474C15.0819 29.6369 14.9941 30.0609 15.0003 30.4888Z" fill="#1D1D1D" stroke="#1D1D1D"/>
</svg>
