<svg width="60" height="60" viewBox="0 0 60 60" fill="none" xmlns="http://www.w3.org/2000/svg">
<circle cx="30" cy="30" r="30" fill="#ED2226"/>
<path d="M44.9997 30.3565C45.0059 30.7802 44.9181 31.2 44.7427 31.5856C44.5672 31.9713 44.3083 32.3133 43.9848 32.5869L30.9924 43.5385C30.8783 43.6143 30.7403 43.6455 30.6048 43.6261C30.4692 43.6067 30.3455 43.538 30.2573 43.4333C30.169 43.3285 30.1225 43.1949 30.1264 43.058C30.1303 42.9211 30.1845 42.7904 30.2787 42.6909L43.2599 31.7059C43.5545 31.455 43.7583 31.114 43.8399 30.7357C43.7894 30.7921 43.7275 30.8372 43.6583 30.868C43.5891 30.8987 43.5141 30.9144 43.4384 30.9141H15.5576C15.4097 30.9141 15.2679 30.8554 15.1633 30.7508C15.0587 30.6462 15 30.5044 15 30.3565C15 30.2086 15.0587 30.0668 15.1633 29.9622C15.2679 29.8576 15.4097 29.7989 15.5576 29.7989H43.4384C43.5141 29.7985 43.5891 29.8142 43.6583 29.845C43.7275 29.8758 43.7894 29.9209 43.8399 29.9773C43.7583 29.599 43.5545 29.258 43.2599 29.0071L30.2787 18.022C30.2132 17.9786 30.1577 17.9218 30.1158 17.8553C30.0738 17.7889 30.0464 17.7144 30.0353 17.6366C30.0242 17.5589 30.0296 17.4796 30.0512 17.4041C30.0728 17.3286 30.1101 17.2585 30.1607 17.1984C30.2113 17.1384 30.2741 17.0896 30.3448 17.0555C30.4155 17.0213 30.4927 17.0025 30.5712 17.0002C30.6497 16.998 30.7278 17.0123 30.8004 17.0423C30.873 17.0724 30.9384 17.1174 30.9924 17.1745L43.9848 28.126C44.3083 28.3997 44.5672 28.7416 44.7427 29.1273C44.9181 29.513 45.0059 29.9328 44.9997 30.3565Z" fill="white" stroke="white"/>
</svg>
