<svg width="79" height="41" viewBox="0 0 79 41" fill="none" xmlns="http://www.w3.org/2000/svg">
<path d="M1.60166 30.2219L6.75936 33.9703V35.3387H0V40.5447H10.3426C11.7271 40.5447 12.7043 39.4738 12.7043 37.9566V33.2265C12.7043 31.5606 12.4057 30.6384 11.1028 29.6864L5.94501 25.9084V24.9565H11.7814L12.7043 22.279V19.7207H2.3889C0.977259 19.7207 0 20.7916 0 22.3088V26.6818C0 28.3478 0.298646 29.2402 1.60166 30.2219ZM21.7675 24.9565H24.1292V28.8535H21.7675V24.9565ZM27.6853 34.0595C29.097 34.0595 30.0741 32.9588 30.0741 31.4416V22.3088C30.0741 20.7916 29.097 19.7207 27.6853 19.7207H15.8225V40.5447H21.7675V34.0595H27.6853ZM38.8387 31.1442L39.3816 24.9565H40.0331L40.5761 31.1442H38.8387ZM34.7669 19.7207L32.1066 37.9566V40.5447H38.0243L38.4044 36.3501H41.0105L41.3633 40.5447H47.3083V37.9566L44.6479 19.7207H34.7669ZM52.8153 19.7207C51.4038 19.7207 50.4265 20.7916 50.4265 22.3088V37.9566C50.4265 39.4738 51.4038 40.5447 52.8153 40.5447H63.1308V35.3387H56.3715V24.9565H62.2078L63.1308 22.3088V19.7207H52.8153ZM78.9533 40.5447V35.3387H72.1668V32.4828H78.0032V27.2768H72.1668V24.9565H78.0032L78.9533 22.3088V19.7207H66.249V40.5447H78.9533Z" fill="white"/>
<path d="M2.43963 8.02998V10.9875H5.54971V8.02998L7.98933 1.49559V0.148438H4.87925L4.10879 4.36018H3.88054L3.12442 0.148438H0V1.49559L2.43963 8.02998ZM13.3765 2.87369V8.2777H12.1354V2.87369H13.3765ZM15.2454 10.9875C15.9873 10.9875 16.501 10.4301 16.501 9.64033V1.49559C16.501 0.705863 15.9873 0.148438 15.2454 0.148438H10.2664C9.5246 0.148438 9.01094 0.705863 9.01094 1.49559V9.64033C9.01094 10.4301 9.5246 10.9875 10.2664 10.9875H15.2454ZM22.3161 0.148438V8.2777H21.075V0.148438H17.9506V9.64033C17.9506 10.4301 18.4642 10.9875 19.206 10.9875H25.4406V0.148438H22.3161ZM31.2557 2.87369V4.90213H30.0146V2.87369H31.2557ZM26.8902 0.148438V10.9875H30.0146V7.6119H30.6423L31.484 10.9875H34.537V9.64033L33.5527 6.977C34.0235 6.83766 34.3802 6.26476 34.3802 5.75378V1.49559C34.3802 0.705863 33.8665 0.148438 33.139 0.148438H26.8902Z" fill="white"/>
<path d="M44.485 10.9875V8.2777H40.9183V6.79121H43.9856V4.08144H40.9183V2.87369H43.9856L44.485 1.49559V0.148438H37.8081V10.9875H44.485ZM47.4448 10.9875H52.1385L53.7221 1.03105V0.148438H50.6119L49.9699 8.2777H49.6132L48.9713 0.148438H45.8611V1.03105L47.4448 10.9875ZM61.7972 10.9875V8.2777H58.2306V6.79121H61.2979V4.08144H58.2306V2.87369H61.2979L61.7972 1.49559V0.148438H55.1204V10.9875H61.7972ZM67.8401 5.16539L66.3849 0.148438H63.075V10.9875H65.9427V9.64033L65.5432 5.98601H65.7857L67.2552 10.9875H70.565V0.148438H67.6832V1.49559L68.0969 5.16539H67.8401ZM73.8324 2.87369V10.9875H76.9567V2.87369H78.4547L78.9541 1.49559V0.148438H71.9634V2.87369H73.8324Z" fill="#ED2226"/>
<path fill-rule="evenodd" clip-rule="evenodd" d="M0.0146484 12.187H78.9469V12.8515H0.0146484V12.187Z" fill="white"/>
<path fill-rule="evenodd" clip-rule="evenodd" d="M0.0146484 17.856H78.9469V18.5204H0.0146484V17.856Z" fill="white"/>
<path d="M1.56146 16.7738V14.416H2.61787V14H0V14.416H1.05253V16.7738H1.56146ZM3.31964 15.5811H4.35296C4.4352 15.5811 4.49751 15.5949 4.53988 15.6227C4.58232 15.6504 4.61121 15.6748 4.62667 15.696C4.65233 15.733 4.66845 15.7791 4.67483 15.8346C4.68128 15.8901 4.6845 15.9377 4.6845 15.9773C4.6845 16.0222 4.68003 16.0711 4.67101 16.1239C4.662 16.1768 4.64338 16.2217 4.61509 16.2586C4.57653 16.3062 4.52771 16.3346 4.46863 16.3438C4.40941 16.3531 4.35934 16.3577 4.31822 16.3577H3.5163C3.49564 16.3577 3.46808 16.3564 3.43334 16.3538C3.39866 16.3511 3.37103 16.3379 3.35043 16.3141C3.34017 16.3009 3.33247 16.2817 3.32734 16.2567C3.32221 16.2316 3.31964 16.1966 3.31964 16.1516V15.5811ZM3.31964 14.5705C3.31964 14.5547 3.32155 14.5349 3.32543 14.5111C3.32925 14.4873 3.33885 14.4662 3.35431 14.4477C3.36971 14.4292 3.38774 14.4193 3.40833 14.418C3.42886 14.4167 3.44945 14.416 3.46998 14.416H4.30276C4.34644 14.416 4.3902 14.4186 4.43388 14.4239C4.47757 14.4292 4.51738 14.4503 4.55343 14.4873C4.59712 14.5296 4.62278 14.5804 4.63048 14.6399C4.63824 14.6994 4.64206 14.7476 4.64206 14.7846C4.64206 14.8796 4.63502 14.947 4.62087 14.9866C4.60673 15.0263 4.59456 15.0527 4.58423 15.0659C4.54824 15.1161 4.50587 15.1452 4.45704 15.1531C4.40816 15.161 4.35802 15.165 4.30664 15.165H3.31964V14.5705ZM4.78477 15.371V15.3551C4.83616 15.3499 4.88175 15.3367 4.92163 15.3155C4.96143 15.2944 5.00058 15.2601 5.0392 15.2125C5.09829 15.1385 5.13434 15.0639 5.14717 14.9886C5.16 14.9133 5.16645 14.8374 5.16645 14.7608C5.16645 14.7159 5.16448 14.667 5.1606 14.6141C5.15678 14.5613 5.14908 14.5085 5.1375 14.4556C5.12599 14.4028 5.10921 14.3513 5.08737 14.3011C5.06552 14.2509 5.03532 14.206 4.99683 14.1664C4.96077 14.1294 4.92228 14.0997 4.88116 14.0772C4.84004 14.0548 4.7976 14.0376 4.75391 14.0257C4.71023 14.0138 4.66713 14.0065 4.62476 14.0039C4.58232 14.0013 4.54317 14 4.50711 14H3.18081C3.13713 14 3.08896 14.0065 3.03626 14.0198C2.98356 14.033 2.93665 14.0647 2.89552 14.1148C2.86723 14.1519 2.84605 14.1954 2.8319 14.2456C2.81775 14.2958 2.81065 14.3473 2.81065 14.4002V16.3815C2.81065 16.4608 2.82289 16.5235 2.84736 16.5697C2.87171 16.6159 2.89039 16.647 2.90322 16.6628C2.95717 16.7262 3.01507 16.7606 3.07672 16.7659C3.13837 16.7711 3.20266 16.7738 3.26951 16.7738H4.56114C4.60226 16.7738 4.64397 16.7731 4.68641 16.7718C4.72884 16.7705 4.77056 16.7639 4.81168 16.752C4.8528 16.7401 4.89393 16.7223 4.93511 16.6985C4.97624 16.6747 5.01604 16.6404 5.0546 16.5954C5.13171 16.5057 5.17671 16.4092 5.18961 16.3062C5.20237 16.2031 5.20882 16.1054 5.20882 16.013C5.20882 15.9734 5.20823 15.9324 5.20692 15.8901C5.2056 15.8478 5.20112 15.8049 5.19343 15.7613C5.18573 15.7177 5.17283 15.6755 5.15487 15.6346C5.13691 15.5936 5.11243 15.5546 5.08164 15.5176C5.04822 15.4807 5.00644 15.4483 4.9563 15.4205C4.90616 15.3928 4.84899 15.3763 4.78477 15.371ZM6.90522 13.9683C6.82298 13.9683 6.73495 13.9696 6.64112 13.9722C6.5473 13.9748 6.45288 13.9854 6.35774 14.0039C6.26267 14.0224 6.1695 14.0515 6.07824 14.0911C5.98698 14.1307 5.90408 14.1875 5.8296 14.2615C5.75505 14.3328 5.69716 14.4141 5.65603 14.5052C5.61491 14.5963 5.58412 14.6914 5.56353 14.7905C5.543 14.8895 5.5301 14.9899 5.52497 15.0917C5.51984 15.1933 5.51727 15.2917 5.51727 15.3868C5.51727 15.4661 5.51918 15.5546 5.52306 15.6524C5.52694 15.7501 5.53846 15.8498 5.5578 15.9516C5.57702 16.0532 5.60787 16.153 5.65031 16.2507C5.69268 16.3485 5.75242 16.4356 5.8296 16.5122C5.90408 16.5862 5.98698 16.643 6.07824 16.6826C6.1695 16.7223 6.26333 16.7513 6.35972 16.7698C6.45611 16.7883 6.55118 16.7989 6.645 16.8015C6.73883 16.8042 6.82561 16.8055 6.90522 16.8055C6.98234 16.8055 7.06846 16.8042 7.1636 16.8015C7.25868 16.7989 7.35441 16.7883 7.4508 16.7698C7.54726 16.7513 7.64101 16.7223 7.73227 16.6826C7.82353 16.643 7.90643 16.5862 7.98098 16.5122C8.05033 16.4435 8.1056 16.363 8.14672 16.2705C8.18784 16.1781 8.2187 16.0817 8.23922 15.9813C8.25988 15.8809 8.27331 15.7798 8.27982 15.6781C8.28621 15.5764 8.28943 15.4793 8.28943 15.3868C8.28943 15.2971 8.28686 15.2007 8.28166 15.0976C8.27653 14.9945 8.26304 14.8929 8.2412 14.7925C8.21936 14.6921 8.18784 14.5957 8.14672 14.5032C8.1056 14.4107 8.05033 14.3301 7.98098 14.2615C7.90643 14.1875 7.82353 14.1307 7.73227 14.0911C7.64101 14.0515 7.54726 14.0224 7.4508 14.0039C7.35441 13.9854 7.25933 13.9748 7.16551 13.9722C7.07169 13.9696 6.98497 13.9683 6.90522 13.9683ZM6.04159 15.3868C6.04159 15.1729 6.05646 15.0071 6.08601 14.8895C6.11555 14.772 6.15601 14.6788 6.2074 14.6102C6.28708 14.5098 6.38735 14.4471 6.50815 14.422C6.62895 14.3968 6.76002 14.3843 6.90141 14.3843C7.04024 14.3843 7.1713 14.3968 7.29467 14.422C7.41804 14.4471 7.51956 14.5098 7.5993 14.6102C7.61983 14.6366 7.64036 14.6696 7.66095 14.7093C7.68148 14.7489 7.69951 14.799 7.7149 14.8598C7.73036 14.9206 7.74254 14.9939 7.75162 15.0798C7.76056 15.1656 7.76504 15.268 7.76504 15.3868C7.76504 15.4978 7.76056 15.5955 7.75162 15.6801C7.74254 15.7647 7.73036 15.8373 7.7149 15.898C7.69951 15.9588 7.68214 16.0103 7.66286 16.0526C7.64365 16.0948 7.62239 16.1305 7.5993 16.1595C7.55818 16.2124 7.51186 16.254 7.46047 16.2844C7.40909 16.3148 7.35316 16.3379 7.29276 16.3538C7.23236 16.3696 7.16933 16.3795 7.10386 16.3835C7.03826 16.3874 6.97082 16.3894 6.90141 16.3894C6.832 16.3894 6.7639 16.3874 6.69705 16.3835C6.6302 16.3795 6.56724 16.3696 6.50815 16.3538C6.449 16.3379 6.3938 16.3148 6.34241 16.2844C6.29089 16.254 6.24602 16.2124 6.2074 16.1595C6.18424 16.1305 6.16305 16.0955 6.14377 16.0546C6.1245 16.0136 6.10719 15.9621 6.09173 15.9C6.07634 15.8379 6.0641 15.7653 6.05515 15.6821C6.04614 15.5989 6.04159 15.5005 6.04159 15.3868ZM10.8379 16.7738V16.3577H9.39591C9.35479 16.3577 9.31946 16.3557 9.28991 16.3518C9.26037 16.3478 9.23787 16.3379 9.22241 16.322C9.19675 16.3009 9.18385 16.2653 9.18385 16.215V15.5652H10.7839V15.1491H9.18385V14.5904C9.18385 14.5693 9.18583 14.5468 9.18971 14.523C9.19352 14.4992 9.20569 14.4768 9.22629 14.4556C9.24681 14.4372 9.26932 14.4259 9.29379 14.422C9.31814 14.418 9.34196 14.416 9.36512 14.416H10.8225V14H9.09134C9.03996 14 8.98403 14.0052 8.92363 14.0158C8.86323 14.0263 8.81119 14.0568 8.76743 14.1069C8.73921 14.1413 8.7167 14.1842 8.69999 14.2357C8.68328 14.2872 8.67492 14.3407 8.67492 14.3962V16.3617C8.67492 16.4145 8.68012 16.4707 8.69039 16.5301C8.70065 16.5895 8.72894 16.6417 8.7752 16.6866C8.81895 16.7315 8.86645 16.7573 8.91784 16.7639C8.96922 16.7705 9.02449 16.7738 9.08364 16.7738H10.8379ZM14.7204 14.416C14.7384 14.416 14.759 14.4167 14.7821 14.418C14.8052 14.4193 14.8258 14.4305 14.8438 14.4517C14.8618 14.4702 14.8715 14.4913 14.8727 14.5151C14.874 14.5388 14.8746 14.5613 14.8746 14.5824V16.7738H15.3836V14.3764C15.3836 14.3289 15.3778 14.2813 15.3662 14.2337C15.3547 14.1862 15.3283 14.1413 15.2872 14.099C15.2409 14.0515 15.192 14.0231 15.1406 14.0138C15.0892 14.0045 15.0365 14 14.9826 14H13.3864C13.3247 14 13.2707 14.0045 13.2245 14.0138C13.1782 14.0231 13.1307 14.0515 13.0818 14.099C13.0381 14.1439 13.0104 14.1888 12.9989 14.2337C12.9873 14.2786 12.9816 14.3262 12.9816 14.3764V16.7738H13.4905V14.5824C13.4905 14.5586 13.4931 14.5343 13.4982 14.5091C13.5034 14.484 13.5123 14.4649 13.5252 14.4517C13.5432 14.4305 13.5631 14.4193 13.585 14.418C13.6068 14.4167 13.628 14.416 13.6486 14.416H14.7204ZM16.3552 16.7738V15.791H17.6198C17.6995 15.791 17.7753 15.7791 17.8473 15.7554C17.9192 15.7316 17.981 15.6986 18.0323 15.6563C18.0864 15.6114 18.1288 15.5573 18.1596 15.4939C18.1904 15.4304 18.2136 15.3638 18.229 15.2937C18.2444 15.2237 18.2547 15.1537 18.2598 15.0837C18.265 15.0137 18.2676 14.9509 18.2676 14.8955C18.2676 14.8374 18.2656 14.7753 18.2618 14.7093C18.2579 14.6432 18.2489 14.5772 18.2348 14.5111C18.2206 14.4451 18.2001 14.3824 18.1731 14.3229C18.1461 14.2635 18.1095 14.2113 18.0632 14.1664C18.0221 14.1241 17.9777 14.0917 17.9302 14.0693C17.8827 14.0468 17.8351 14.0303 17.7875 14.0198C17.7399 14.0092 17.6938 14.0032 17.6488 14.0019C17.6037 14.0006 17.5633 14 17.5272 14H16.2434C16.1971 14 16.1457 14.0065 16.0891 14.0198C16.0326 14.033 15.9825 14.062 15.9388 14.1069C15.8925 14.1545 15.8655 14.2047 15.8578 14.2575C15.8501 14.3103 15.8462 14.3632 15.8462 14.416V16.7738H16.3552ZM16.3552 15.3749V14.5824C16.3552 14.5586 16.3565 14.5356 16.359 14.5131C16.3617 14.4907 16.3719 14.4702 16.3899 14.4517C16.4105 14.4305 16.431 14.4193 16.4516 14.418C16.4721 14.4167 16.4914 14.416 16.5094 14.416H17.3306C17.3743 14.416 17.427 14.4206 17.4887 14.4299C17.5504 14.4391 17.6031 14.4662 17.6468 14.5111C17.6905 14.556 17.7174 14.6155 17.7278 14.6894C17.7381 14.7634 17.7432 14.8307 17.7432 14.8915C17.7432 14.9179 17.7425 14.9484 17.7413 14.9827C17.7399 15.017 17.7361 15.0513 17.7297 15.0857C17.7233 15.1201 17.7143 15.1537 17.7027 15.1868C17.6911 15.2198 17.6751 15.2482 17.6545 15.2719C17.6109 15.3248 17.5587 15.3551 17.4983 15.3631C17.4379 15.371 17.3795 15.3749 17.3229 15.3749H16.3552ZM19.964 13.9683C19.8817 13.9683 19.7937 13.9696 19.6999 13.9722C19.606 13.9748 19.5116 13.9854 19.4165 14.0039C19.3214 14.0224 19.2282 14.0515 19.1369 14.0911C19.0457 14.1307 18.9628 14.1875 18.8883 14.2615C18.8137 14.3328 18.7559 14.4141 18.7148 14.5052C18.6736 14.5963 18.6428 14.6914 18.6223 14.7905C18.6017 14.8895 18.5888 14.9899 18.5837 15.0917C18.5786 15.1933 18.5759 15.2917 18.5759 15.3868C18.5759 15.4661 18.5779 15.5546 18.5818 15.6524C18.5857 15.7501 18.5972 15.8498 18.6165 15.9516C18.6357 16.0532 18.6666 16.153 18.709 16.2507C18.7514 16.3485 18.8112 16.4356 18.8883 16.5122C18.9628 16.5862 19.0457 16.643 19.1369 16.6826C19.2282 16.7223 19.3221 16.7513 19.4185 16.7698C19.5148 16.7883 19.6099 16.7989 19.7037 16.8015C19.7976 16.8042 19.8843 16.8055 19.964 16.8055C20.0411 16.8055 20.1272 16.8042 20.2223 16.8015C20.3174 16.7989 20.4131 16.7883 20.5095 16.7698C20.6059 16.7513 20.6998 16.7223 20.7909 16.6826C20.8823 16.643 20.9652 16.5862 21.0397 16.5122C21.1091 16.4435 21.1643 16.363 21.2055 16.2705C21.2466 16.1781 21.2774 16.0817 21.298 15.9813C21.3186 15.8809 21.332 15.7798 21.3385 15.6781C21.3449 15.5764 21.3482 15.4793 21.3482 15.3868C21.3482 15.2971 21.3455 15.2007 21.3404 15.0976C21.3353 14.9945 21.3218 14.8929 21.2999 14.7925C21.278 14.6921 21.2466 14.5957 21.2055 14.5032C21.1643 14.4107 21.1091 14.3301 21.0397 14.2615C20.9652 14.1875 20.8823 14.1307 20.7909 14.0911C20.6998 14.0515 20.6059 14.0224 20.5095 14.0039C20.4131 13.9854 20.3181 13.9748 20.2242 13.9722C20.1304 13.9696 20.0436 13.9683 19.964 13.9683ZM19.1003 15.3868C19.1003 15.1729 19.1151 15.0071 19.1447 14.8895C19.1742 14.772 19.2147 14.6788 19.2661 14.6102C19.3458 14.5098 19.446 14.4471 19.5669 14.422C19.6876 14.3968 19.8188 14.3843 19.9601 14.3843C20.099 14.3843 20.23 14.3968 20.3534 14.422C20.4768 14.4471 20.5783 14.5098 20.658 14.6102C20.6786 14.6366 20.6991 14.6696 20.7197 14.7093C20.7402 14.7489 20.7582 14.799 20.7736 14.8598C20.7891 14.9206 20.8013 14.9939 20.8103 15.0798C20.8193 15.1656 20.8238 15.268 20.8238 15.3868C20.8238 15.4978 20.8193 15.5955 20.8103 15.6801C20.8013 15.7647 20.7891 15.8373 20.7736 15.898C20.7582 15.9588 20.7409 16.0103 20.7216 16.0526C20.7023 16.0948 20.6811 16.1305 20.658 16.1595C20.6168 16.2124 20.5706 16.254 20.5192 16.2844C20.4678 16.3148 20.4118 16.3379 20.3515 16.3538C20.2911 16.3696 20.2281 16.3795 20.1626 16.3835C20.097 16.3874 20.0295 16.3894 19.9601 16.3894C19.8907 16.3894 19.8226 16.3874 19.7558 16.3835C19.6889 16.3795 19.626 16.3696 19.5669 16.3538C19.5077 16.3379 19.4525 16.3148 19.4011 16.2844C19.3496 16.254 19.3047 16.2124 19.2661 16.1595C19.243 16.1305 19.2218 16.0955 19.2025 16.0546C19.1832 16.0136 19.1659 15.9621 19.1505 15.9C19.1351 15.8379 19.1228 15.7653 19.1139 15.6821C19.1049 15.5989 19.1003 15.5005 19.1003 15.3868ZM23.9275 16.7738V16.3577H23.0137C22.8543 16.3577 22.7143 16.3406 22.5935 16.3062C22.4726 16.2718 22.3775 16.2005 22.3081 16.0922C22.2953 16.0711 22.2811 16.0433 22.2657 16.009C22.2503 15.9746 22.2362 15.931 22.2233 15.8782C22.2105 15.8254 22.2001 15.7613 22.1925 15.686C22.1848 15.6108 22.1809 15.5216 22.1809 15.4185C22.1809 15.2125 22.1957 15.052 22.2253 14.9371C22.2548 14.8222 22.2902 14.7343 22.3313 14.6736C22.3698 14.6155 22.4142 14.5693 22.4643 14.5349C22.5144 14.5006 22.5697 14.4741 22.6301 14.4556C22.6905 14.4372 22.7554 14.4259 22.8247 14.422C22.8942 14.418 22.9661 14.416 23.0407 14.416H23.885V14H22.8016C22.7528 14 22.6924 14.0026 22.6204 14.0079C22.5485 14.0132 22.4714 14.0277 22.3891 14.0515C22.3069 14.0752 22.2246 14.1103 22.1424 14.1564C22.0601 14.2027 21.9855 14.2667 21.9187 14.3487C21.8622 14.4173 21.8166 14.4933 21.7819 14.5765C21.7471 14.6597 21.7208 14.7482 21.7028 14.842C21.6848 14.9358 21.6726 15.0322 21.6662 15.1313C21.6598 15.2304 21.6565 15.3288 21.6565 15.4265C21.6565 15.5031 21.6591 15.5856 21.6643 15.6742C21.6694 15.7627 21.681 15.8518 21.6989 15.9416C21.7169 16.0314 21.7439 16.1199 21.7799 16.2071C21.8159 16.2943 21.866 16.3749 21.9303 16.4489C21.992 16.5202 22.0594 16.5776 22.1327 16.6212C22.206 16.6648 22.2805 16.6978 22.3563 16.7203C22.4321 16.7428 22.5073 16.7573 22.5819 16.7639C22.6564 16.7705 22.7258 16.7738 22.7901 16.7738H23.9275ZM25.566 16.7738V14.416H26.6224V14H24.0046V14.416H25.0571V16.7738H25.566ZM27.3242 16.7738V15.791H28.5888C28.6685 15.791 28.7443 15.7791 28.8163 15.7554C28.8882 15.7316 28.95 15.6986 29.0014 15.6563C29.0554 15.6114 29.0977 15.5573 29.1286 15.4939C29.1595 15.4304 29.1826 15.3638 29.1979 15.2937C29.2134 15.2237 29.2237 15.1537 29.2288 15.0837C29.234 15.0137 29.2366 14.9509 29.2366 14.8955C29.2366 14.8374 29.2346 14.7753 29.2308 14.7093C29.2269 14.6432 29.2179 14.5772 29.2038 14.5111C29.1897 14.4451 29.1691 14.3824 29.142 14.3229C29.1151 14.2635 29.0784 14.2113 29.0322 14.1664C28.9911 14.1241 28.9467 14.0917 28.8992 14.0693C28.8516 14.0468 28.804 14.0303 28.7565 14.0198C28.709 14.0092 28.6627 14.0032 28.6177 14.0019C28.5727 14.0006 28.5322 14 28.4962 14H27.2124C27.1661 14 27.1147 14.0065 27.0582 14.0198C27.0016 14.033 26.9515 14.062 26.9077 14.1069C26.8616 14.1545 26.8345 14.2047 26.8268 14.2575C26.8191 14.3103 26.8152 14.3632 26.8152 14.416V16.7738H27.3242ZM27.3242 15.3749V14.5824C27.3242 14.5586 27.3255 14.5356 27.328 14.5131C27.3307 14.4907 27.3409 14.4702 27.3589 14.4517C27.3794 14.4305 27.4 14.4193 27.4205 14.418C27.4411 14.4167 27.4604 14.416 27.4785 14.416H28.2996C28.3433 14.416 28.396 14.4206 28.4577 14.4299C28.5194 14.4391 28.5721 14.4662 28.6158 14.5111C28.6595 14.556 28.6865 14.6155 28.6968 14.6894C28.707 14.7634 28.7122 14.8307 28.7122 14.8915C28.7122 14.9179 28.7115 14.9484 28.7103 14.9827C28.709 15.017 28.7051 15.0513 28.6987 15.0857C28.6922 15.1201 28.6833 15.1537 28.6717 15.1868C28.6601 15.2198 28.6441 15.2482 28.6235 15.2719C28.5799 15.3248 28.5278 15.3551 28.4674 15.3631C28.407 15.371 28.3485 15.3749 28.2919 15.3749H27.3242ZM29.2751 16.7738H29.811L30.0847 16.0724H31.3841L31.6617 16.7738H32.1976L31.1797 14.2813C31.1309 14.1651 31.0737 14.0838 31.0081 14.0376C30.9426 13.9914 30.852 13.9683 30.7364 13.9683C30.6155 13.9683 30.5237 13.9914 30.4607 14.0376C30.3977 14.0838 30.3418 14.1651 30.293 14.2813L29.2751 16.7738ZM30.6592 14.5705C30.667 14.5494 30.6772 14.525 30.6901 14.4972C30.703 14.4695 30.7183 14.4556 30.7364 14.4556C30.7543 14.4556 30.7698 14.4695 30.7826 14.4972C30.7955 14.525 30.8057 14.5494 30.8135 14.5705L31.253 15.6999H30.2159L30.6592 14.5705ZM34.7346 14H34.2256V15.1372H32.8222V14H32.3132V16.7738H32.8222V15.5533H34.2256V16.7738H34.7346V14ZM37.391 16.7738V16.3577H36.4772C36.3179 16.3577 36.1778 16.3406 36.057 16.3062C35.9362 16.2718 35.8411 16.2005 35.7717 16.0922C35.7589 16.0711 35.7447 16.0433 35.7293 16.009C35.7139 15.9746 35.6998 15.931 35.6869 15.8782C35.674 15.8254 35.6637 15.7613 35.656 15.686C35.6483 15.6108 35.6444 15.5216 35.6444 15.4185C35.6444 15.2125 35.6592 15.052 35.6889 14.9371C35.7184 14.8222 35.7537 14.7343 35.7948 14.6736C35.8334 14.6155 35.8778 14.5693 35.9278 14.5349C35.978 14.5006 36.0332 14.4741 36.0937 14.4556C36.154 14.4372 36.219 14.4259 36.2883 14.422C36.3578 14.418 36.4297 14.416 36.5043 14.416H37.3486V14H36.2652C36.2164 14 36.156 14.0026 36.084 14.0079C36.012 14.0132 35.9349 14.0277 35.8526 14.0515C35.7704 14.0752 35.6882 14.1103 35.606 14.1564C35.5236 14.2027 35.4491 14.2667 35.3823 14.3487C35.3257 14.4173 35.2801 14.4933 35.2455 14.5765C35.2107 14.6597 35.1843 14.7482 35.1664 14.842C35.1484 14.9358 35.1362 15.0322 35.1298 15.1313C35.1233 15.2304 35.1201 15.3288 35.1201 15.4265C35.1201 15.5031 35.1227 15.5856 35.1278 15.6742C35.1329 15.7627 35.1445 15.8518 35.1625 15.9416C35.1805 16.0314 35.2075 16.1199 35.2435 16.2071C35.2795 16.2943 35.3296 16.3749 35.3939 16.4489C35.4555 16.5202 35.523 16.5776 35.5962 16.6212C35.6696 16.6648 35.7441 16.6978 35.8199 16.7203C35.8957 16.7428 35.9709 16.7573 36.0455 16.7639C36.12 16.7705 36.1894 16.7738 36.2536 16.7738H37.391ZM39.0296 16.7738V14.416H40.086V14H37.4682V14.416H38.5207V16.7738H39.0296ZM40.7877 15.5811H41.821C41.9033 15.5811 41.9656 15.5949 42.008 15.6227C42.0504 15.6504 42.0794 15.6748 42.0948 15.696C42.1205 15.733 42.1365 15.7791 42.143 15.8346C42.1494 15.8901 42.1526 15.9377 42.1526 15.9773C42.1526 16.0222 42.1481 16.0711 42.1392 16.1239C42.1301 16.1768 42.1115 16.2217 42.0832 16.2586C42.0446 16.3062 41.9958 16.3346 41.9367 16.3438C41.8776 16.3531 41.8274 16.3577 41.7864 16.3577H40.9844C40.9638 16.3577 40.9362 16.3564 40.9015 16.3538C40.8668 16.3511 40.8391 16.3379 40.8186 16.3141C40.8083 16.3009 40.8006 16.2817 40.7954 16.2567C40.7903 16.2316 40.7877 16.1966 40.7877 16.1516V15.5811ZM40.7877 14.5705C40.7877 14.5547 40.7897 14.5349 40.7936 14.5111C40.7974 14.4873 40.807 14.4662 40.8225 14.4477C40.8379 14.4292 40.8559 14.4193 40.8764 14.418C40.897 14.4167 40.9175 14.416 40.9381 14.416H41.7709C41.8146 14.416 41.8583 14.4186 41.902 14.4239C41.9457 14.4292 41.9855 14.4503 42.0215 14.4873C42.0653 14.5296 42.0909 14.5804 42.0986 14.6399C42.1063 14.6994 42.1102 14.7476 42.1102 14.7846C42.1102 14.8796 42.1031 14.947 42.089 14.9866C42.0749 15.0263 42.0627 15.0527 42.0524 15.0659C42.0164 15.1161 41.974 15.1452 41.9251 15.1531C41.8762 15.161 41.8262 15.165 41.7748 15.165H40.7877V14.5705ZM42.2529 15.371V15.3551C42.3042 15.3499 42.3499 15.3367 42.3897 15.3155C42.4296 15.2944 42.4687 15.2601 42.5074 15.2125C42.5664 15.1385 42.6024 15.0639 42.6153 14.9886C42.6281 14.9133 42.6345 14.8374 42.6345 14.7608C42.6345 14.7159 42.6326 14.667 42.6288 14.6141C42.6249 14.5613 42.6172 14.5085 42.6056 14.4556C42.5941 14.4028 42.5774 14.3513 42.5555 14.3011C42.5337 14.2509 42.5035 14.206 42.4649 14.1664C42.4289 14.1294 42.3904 14.0997 42.3493 14.0772C42.3081 14.0548 42.2658 14.0376 42.222 14.0257C42.1783 14.0138 42.1353 14.0065 42.0928 14.0039C42.0504 14.0013 42.0113 14 41.9753 14H40.6489C40.6052 14 40.5571 14.0065 40.5044 14.0198C40.4517 14.033 40.4047 14.0647 40.3636 14.1148C40.3354 14.1519 40.3141 14.1954 40.3 14.2456C40.2858 14.2958 40.2788 14.3473 40.2788 14.4002V16.3815C40.2788 16.4608 40.291 16.5235 40.3155 16.5697C40.3399 16.6159 40.3586 16.647 40.3713 16.6628C40.4253 16.7262 40.4832 16.7606 40.5448 16.7659C40.6065 16.7711 40.6708 16.7738 40.7377 16.7738H42.0292C42.0703 16.7738 42.1121 16.7731 42.1546 16.7718C42.1969 16.7705 42.2387 16.7639 42.2798 16.752C42.321 16.7401 42.3621 16.7223 42.4033 16.6985C42.4444 16.6747 42.4842 16.6404 42.5227 16.5954C42.5999 16.5057 42.6449 16.4092 42.6577 16.3062C42.6705 16.2031 42.677 16.1054 42.677 16.013C42.677 15.9734 42.6763 15.9324 42.6751 15.8901C42.6738 15.8478 42.6692 15.8049 42.6615 15.7613C42.6538 15.7177 42.641 15.6755 42.623 15.6346C42.605 15.5936 42.5806 15.5546 42.5497 15.5176C42.5163 15.4807 42.4745 15.4483 42.4245 15.4205C42.3743 15.3928 42.3171 15.3763 42.2529 15.371ZM44.3734 13.9683C44.2911 13.9683 44.2031 13.9696 44.1093 13.9722C44.0155 13.9748 43.921 13.9854 43.8259 14.0039C43.7308 14.0224 43.6377 14.0515 43.5463 14.0911C43.4551 14.1307 43.3722 14.1875 43.2977 14.2615C43.2231 14.3328 43.1653 14.4141 43.1242 14.5052C43.0831 14.5963 43.0522 14.6914 43.0317 14.7905C43.0111 14.8895 42.9983 14.9899 42.9931 15.0917C42.9879 15.1933 42.9854 15.2917 42.9854 15.3868C42.9854 15.4661 42.9873 15.5546 42.9912 15.6524C42.995 15.7501 43.0066 15.8498 43.0259 15.9516C43.0452 16.0532 43.076 16.153 43.1184 16.2507C43.1608 16.3485 43.2206 16.4356 43.2977 16.5122C43.3722 16.5862 43.4551 16.643 43.5463 16.6826C43.6377 16.7223 43.7314 16.7513 43.8278 16.7698C43.9243 16.7883 44.0193 16.7989 44.1132 16.8015C44.2069 16.8042 44.2937 16.8055 44.3734 16.8055C44.4505 16.8055 44.5366 16.8042 44.6317 16.8015C44.7268 16.7989 44.8226 16.7883 44.919 16.7698C45.0153 16.7513 45.1092 16.7223 45.2004 16.6826C45.2917 16.643 45.3745 16.5862 45.4491 16.5122C45.5185 16.4435 45.5737 16.363 45.6149 16.2705C45.656 16.1781 45.6868 16.0817 45.7074 15.9813C45.728 15.8809 45.7415 15.7798 45.7479 15.6781C45.7543 15.5764 45.7575 15.4793 45.7575 15.3868C45.7575 15.2971 45.755 15.2007 45.7498 15.0976C45.7447 14.9945 45.7312 14.8929 45.7093 14.7925C45.6875 14.6921 45.656 14.5957 45.6149 14.5032C45.5737 14.4107 45.5185 14.3301 45.4491 14.2615C45.3745 14.1875 45.2917 14.1307 45.2004 14.0911C45.1092 14.0515 45.0153 14.0224 44.919 14.0039C44.8226 13.9854 44.7274 13.9748 44.6337 13.9722C44.5398 13.9696 44.4531 13.9683 44.3734 13.9683ZM43.5098 15.3868C43.5098 15.1729 43.5246 15.0071 43.5541 14.8895C43.5836 14.772 43.6241 14.6788 43.6755 14.6102C43.7552 14.5098 43.8554 14.4471 43.9763 14.422C44.097 14.3968 44.2282 14.3843 44.3696 14.3843C44.5083 14.3843 44.6394 14.3968 44.7628 14.422C44.8862 14.4471 44.9876 14.5098 45.0674 14.6102C45.088 14.6366 45.1085 14.6696 45.129 14.7093C45.1496 14.7489 45.1676 14.799 45.1831 14.8598C45.1985 14.9206 45.2107 14.9939 45.2197 15.0798C45.2287 15.1656 45.2331 15.268 45.2331 15.3868C45.2331 15.4978 45.2287 15.5955 45.2197 15.6801C45.2107 15.7647 45.1985 15.8373 45.1831 15.898C45.1676 15.9588 45.1503 16.0103 45.131 16.0526C45.1117 16.0948 45.0905 16.1305 45.0674 16.1595C45.0263 16.2124 44.98 16.254 44.9286 16.2844C44.8772 16.3148 44.8213 16.3379 44.7608 16.3538C44.7005 16.3696 44.6375 16.3795 44.572 16.3835C44.5064 16.3874 44.4389 16.3894 44.3696 16.3894C44.3001 16.3894 44.2321 16.3874 44.1652 16.3835C44.0984 16.3795 44.0354 16.3696 43.9763 16.3538C43.9171 16.3379 43.8619 16.3148 43.8105 16.2844C43.7591 16.254 43.7141 16.2124 43.6755 16.1595C43.6524 16.1305 43.6311 16.0955 43.6119 16.0546C43.5927 16.0136 43.5753 15.9621 43.5599 15.9C43.5445 15.8379 43.5323 15.7653 43.5232 15.6821C43.5143 15.5989 43.5098 15.5005 43.5098 15.3868ZM49.7981 14.6221C49.8032 14.6062 49.8123 14.5871 49.8251 14.5646C49.838 14.5422 49.8508 14.5309 49.8637 14.5309C49.8714 14.5309 49.881 14.5356 49.8926 14.5448C49.9041 14.5541 49.9099 14.5772 49.9099 14.6141L49.8945 16.7738H50.4035V14.3328C50.4035 14.206 50.3623 14.1135 50.28 14.0554C50.1978 13.9973 50.0937 13.9683 49.9678 13.9683C49.9189 13.9683 49.8727 13.9722 49.8289 13.9802C49.7852 13.9881 49.7429 14.0045 49.7018 14.0297C49.6606 14.0548 49.6227 14.0904 49.588 14.1366C49.5533 14.1829 49.5218 14.2456 49.4936 14.3249L48.7957 16.1754C48.7829 16.2045 48.7706 16.2289 48.759 16.2487C48.7475 16.2685 48.7353 16.2784 48.7224 16.2784C48.7096 16.2784 48.6974 16.2685 48.6858 16.2487C48.6742 16.2289 48.662 16.2045 48.6492 16.1754L47.9513 14.3249C47.9333 14.2773 47.9128 14.2318 47.8896 14.1882C47.8665 14.1446 47.8376 14.1063 47.8028 14.0732C47.7682 14.0402 47.7245 14.0144 47.6718 13.996C47.6191 13.9775 47.5542 13.9683 47.4771 13.9683C47.4565 13.9683 47.4225 13.9703 47.3749 13.9742C47.3273 13.9782 47.2792 13.992 47.2303 14.0158C47.1815 14.0396 47.1378 14.0759 47.0993 14.1247C47.0607 14.1736 47.0414 14.2429 47.0414 14.3328V16.7738H47.5503L47.5387 14.6141C47.5387 14.6089 47.5407 14.5937 47.5446 14.5686C47.5484 14.5435 47.5606 14.5309 47.5812 14.5309C47.594 14.5309 47.6069 14.5422 47.6198 14.5646C47.6326 14.5871 47.6416 14.6062 47.6467 14.6221L48.3369 16.4726C48.3523 16.5176 48.369 16.5598 48.387 16.5994C48.4049 16.639 48.4281 16.674 48.4564 16.7044C48.4847 16.7348 48.52 16.7592 48.5624 16.7778C48.6049 16.7962 48.6582 16.8055 48.7224 16.8055C48.7815 16.8055 48.8317 16.7982 48.8728 16.7837C48.9139 16.7691 48.9486 16.7473 48.9769 16.7183C49.0052 16.6893 49.029 16.6542 49.0482 16.6133C49.0675 16.5724 49.0874 16.5255 49.108 16.4726L49.7981 14.6221ZM53.0291 16.7738V16.3577H51.5871C51.546 16.3577 51.5106 16.3557 51.4811 16.3518C51.4515 16.3478 51.429 16.3379 51.4136 16.322C51.3879 16.3009 51.3751 16.2653 51.3751 16.215V15.5652H52.9751V15.1491H51.3751V14.5904C51.3751 14.5693 51.377 14.5468 51.3809 14.523C51.3847 14.4992 51.3969 14.4768 51.4174 14.4556C51.438 14.4372 51.4605 14.4259 51.4849 14.422C51.5093 14.418 51.5331 14.416 51.5563 14.416H53.0136V14H51.2825C51.2311 14 51.1752 14.0052 51.1148 14.0158C51.0544 14.0263 51.0023 14.0568 50.9586 14.1069C50.9304 14.1413 50.9079 14.1842 50.8912 14.2357C50.8744 14.2872 50.8661 14.3407 50.8661 14.3962V16.3617C50.8661 16.4145 50.8713 16.4707 50.8815 16.5301C50.8919 16.5895 50.9201 16.6417 50.9663 16.6866C51.0101 16.7315 51.0576 16.7573 51.109 16.7639C51.1604 16.7705 51.2156 16.7738 51.2748 16.7738H53.0291Z" fill="white"/>
<path d="M53.8849 16.774V15.7912H55.1496C55.2292 15.7912 55.305 15.7794 55.377 15.7556C55.449 15.7318 55.5107 15.6988 55.5621 15.6566C55.6161 15.6116 55.6585 15.5575 55.6893 15.4941C55.7202 15.4306 55.7434 15.364 55.7587 15.294C55.7741 15.2239 55.7845 15.154 55.7895 15.0839C55.7947 15.014 55.7973 14.9512 55.7973 14.8957C55.7973 14.8376 55.7954 14.7755 55.7915 14.7095C55.7876 14.6434 55.7786 14.5774 55.7645 14.5113C55.7504 14.4453 55.7298 14.3826 55.7028 14.3231C55.6758 14.2637 55.6392 14.2115 55.5929 14.1666C55.5518 14.1243 55.5075 14.0919 55.4599 14.0695C55.4124 14.047 55.3648 14.0305 55.3173 14.02C55.2697 14.0094 55.2234 14.0034 55.1785 14.0022C55.1335 14.0008 55.093 14.0002 55.057 14.0002H53.7732C53.7269 14.0002 53.6755 14.0068 53.6189 14.02C53.5624 14.0332 53.5122 14.0622 53.4685 14.1071C53.4223 14.1547 53.3953 14.2049 53.3876 14.2577C53.3799 14.3105 53.376 14.3634 53.376 14.4163V16.774H53.8849ZM53.8849 15.3752V14.5826C53.8849 14.5589 53.8862 14.5358 53.8888 14.5133C53.8914 14.4909 53.9017 14.4704 53.9196 14.4519C53.9402 14.4308 53.9608 14.4195 53.9814 14.4182C54.0019 14.4169 54.0212 14.4163 54.0392 14.4163H54.8604C54.9041 14.4163 54.9568 14.4208 55.0185 14.4301C55.0801 14.4393 55.1328 14.4664 55.1765 14.5113C55.2202 14.5563 55.2472 14.6157 55.2575 14.6896C55.2679 14.7636 55.2729 14.831 55.2729 14.8918C55.2729 14.9181 55.2723 14.9486 55.271 14.9829C55.2697 15.0172 55.2659 15.0516 55.2594 15.0859C55.253 15.1203 55.244 15.154 55.2325 15.187C55.2209 15.22 55.2048 15.2484 55.1842 15.2722C55.1406 15.325 55.0885 15.3554 55.0281 15.3633C54.9677 15.3712 54.9092 15.3752 54.8527 15.3752H53.8849ZM57.4937 13.9685C57.4115 13.9685 57.3234 13.9698 57.2296 13.9724C57.1358 13.9751 57.0414 13.9856 56.9462 14.0041C56.8512 14.0226 56.758 14.0517 56.6667 14.0913C56.5755 14.1309 56.4926 14.1878 56.418 14.2617C56.3435 14.333 56.2856 14.4143 56.2445 14.5054C56.2034 14.5965 56.1725 14.6916 56.152 14.7907C56.1314 14.8898 56.1186 14.9902 56.1135 15.0919C56.1083 15.1936 56.1057 15.292 56.1057 15.3871C56.1057 15.4663 56.1077 15.5548 56.1115 15.6526C56.1154 15.7503 56.1269 15.8501 56.1462 15.9518C56.1655 16.0535 56.1964 16.1532 56.2387 16.2509C56.2812 16.3487 56.3409 16.4359 56.418 16.5125C56.4926 16.5864 56.5755 16.6432 56.6667 16.6828C56.758 16.7225 56.8517 16.7515 56.9482 16.77C57.0446 16.7886 57.1397 16.7991 57.2335 16.8017C57.3273 16.8044 57.414 16.8057 57.4937 16.8057C57.5708 16.8057 57.6569 16.8044 57.752 16.8017C57.8472 16.7991 57.9429 16.7886 58.0393 16.77C58.1357 16.7515 58.2295 16.7225 58.3207 16.6828C58.412 16.6432 58.4949 16.5864 58.5695 16.5125C58.6388 16.4438 58.6941 16.3632 58.7352 16.2707C58.7763 16.1783 58.8072 16.0819 58.8277 15.9815C58.8483 15.8811 58.8618 15.78 58.8682 15.6784C58.8746 15.5766 58.8779 15.4795 58.8779 15.3871C58.8779 15.2973 58.8753 15.2009 58.8702 15.0978C58.865 14.9948 58.8515 14.8931 58.8297 14.7927C58.8078 14.6923 58.7763 14.5959 58.7352 14.5034C58.6941 14.4109 58.6388 14.3303 58.5695 14.2617C58.4949 14.1878 58.412 14.1309 58.3207 14.0913C58.2295 14.0517 58.1357 14.0226 58.0393 14.0041C57.9429 13.9856 57.8478 13.9751 57.754 13.9724C57.6602 13.9698 57.5734 13.9685 57.4937 13.9685ZM56.6301 15.3871C56.6301 15.1731 56.6449 15.0073 56.6744 14.8898C56.704 14.7722 56.7444 14.6791 56.7959 14.6104C56.8756 14.51 56.9758 14.4473 57.0966 14.4222C57.2174 14.3971 57.3485 14.3845 57.4899 14.3845C57.6287 14.3845 57.7597 14.3971 57.8832 14.4222C58.0065 14.4473 58.108 14.51 58.1877 14.6104C58.2083 14.6368 58.2288 14.6698 58.2494 14.7095C58.27 14.7491 58.2879 14.7993 58.3034 14.8601C58.3189 14.9208 58.331 14.9941 58.34 15.08C58.3491 15.1658 58.3535 15.2682 58.3535 15.3871C58.3535 15.498 58.3491 15.5958 58.34 15.6803C58.331 15.7649 58.3189 15.8375 58.3034 15.8982C58.2879 15.959 58.2706 16.0105 58.2513 16.0528C58.2321 16.095 58.2109 16.1307 58.1877 16.1598C58.1466 16.2127 58.1003 16.2543 58.049 16.2846C57.9975 16.315 57.9416 16.3381 57.8812 16.354C57.8208 16.3698 57.7578 16.3797 57.6923 16.3837C57.6267 16.3876 57.5592 16.3896 57.4899 16.3896C57.4205 16.3896 57.3524 16.3876 57.2855 16.3837C57.2187 16.3797 57.1557 16.3698 57.0966 16.354C57.0375 16.3381 56.9822 16.315 56.9308 16.2846C56.8794 16.2543 56.8344 16.2127 56.7959 16.1598C56.7727 16.1307 56.7515 16.0957 56.7323 16.0548C56.713 16.0138 56.6956 15.9624 56.6802 15.9002C56.6648 15.8382 56.6526 15.7655 56.6436 15.6823C56.6346 15.5991 56.6301 15.5007 56.6301 15.3871ZM61.0023 14.4163C61.0202 14.4163 61.0408 14.4169 61.064 14.4182C61.0871 14.4195 61.1077 14.4308 61.1256 14.4519C61.1436 14.4704 61.1533 14.4915 61.1546 14.5153C61.1558 14.5391 61.1565 14.5615 61.1565 14.5826V16.774H61.6654V14.3766C61.6654 14.3291 61.6596 14.2815 61.648 14.2339C61.6365 14.1864 61.6102 14.1415 61.569 14.0992C61.5228 14.0517 61.4739 14.0233 61.4225 14.0141C61.3711 14.0048 61.3184 14.0002 61.2644 14.0002H59.6683C59.6066 14.0002 59.5526 14.0048 59.5063 14.0141C59.4601 14.0233 59.4125 14.0517 59.3637 14.0992C59.32 14.1442 59.2923 14.189 59.2808 14.2339C59.2692 14.2788 59.2634 14.3264 59.2634 14.3766V16.774H59.7723V14.5826C59.7723 14.5589 59.7749 14.5345 59.78 14.5094C59.7852 14.4842 59.7942 14.4651 59.8071 14.4519C59.825 14.4308 59.8449 14.4195 59.8668 14.4182C59.8887 14.4169 59.9098 14.4163 59.9304 14.4163H61.0023ZM62.637 16.774V15.7912H63.9017C63.9813 15.7912 64.0572 15.7794 64.1291 15.7556C64.2011 15.7318 64.2628 15.6988 64.3142 15.6566C64.3682 15.6116 64.4106 15.5575 64.4414 15.4941C64.4723 15.4306 64.4955 15.364 64.5108 15.294C64.5263 15.2239 64.5366 15.154 64.5416 15.0839C64.5468 15.014 64.5494 14.9512 64.5494 14.8957C64.5494 14.8376 64.5475 14.7755 64.5436 14.7095C64.5397 14.6434 64.5307 14.5774 64.5166 14.5113C64.5025 14.4453 64.4819 14.3826 64.4549 14.3231C64.428 14.2637 64.3913 14.2115 64.345 14.1666C64.3039 14.1243 64.2596 14.0919 64.212 14.0695C64.1645 14.047 64.1169 14.0305 64.0694 14.02C64.0218 14.0094 63.9755 14.0034 63.9306 14.0022C63.8856 14.0008 63.8451 14.0002 63.8091 14.0002H62.5253C62.479 14.0002 62.4276 14.0068 62.371 14.02C62.3145 14.0332 62.2643 14.0622 62.2206 14.1071C62.1744 14.1547 62.1474 14.2049 62.1397 14.2577C62.132 14.3105 62.1281 14.3634 62.1281 14.4163V16.774H62.637ZM62.637 15.3752V14.5826C62.637 14.5589 62.6383 14.5358 62.6409 14.5133C62.6435 14.4909 62.6538 14.4704 62.6717 14.4519C62.6923 14.4308 62.7129 14.4195 62.7335 14.4182C62.754 14.4169 62.7733 14.4163 62.7913 14.4163H63.6125C63.6562 14.4163 63.7089 14.4208 63.7706 14.4301C63.8322 14.4393 63.8849 14.4664 63.9286 14.5113C63.9723 14.5563 63.9993 14.6157 64.0096 14.6896C64.02 14.7636 64.025 14.831 64.025 14.8918C64.025 14.9181 64.0244 14.9486 64.0231 14.9829C64.0218 15.0172 64.018 15.0516 64.0115 15.0859C64.0052 15.1203 63.9961 15.154 63.9846 15.187C63.973 15.22 63.9569 15.2484 63.9363 15.2722C63.8927 15.325 63.8406 15.3554 63.7802 15.3633C63.7198 15.3712 63.6613 15.3752 63.6048 15.3752H62.637ZM67.5028 16.774V14.4678C67.5028 14.4334 67.5001 14.3878 67.495 14.331C67.4899 14.2743 67.4744 14.2194 67.4487 14.1666C67.423 14.1137 67.3819 14.0675 67.3248 14.0279C67.2682 13.9883 67.1898 13.9685 67.0896 13.9685C66.997 13.9685 66.9161 13.9896 66.848 14.0319C66.7798 14.0741 66.7098 14.156 66.6372 14.2775L65.548 16.1083C65.5351 16.1294 65.5236 16.1492 65.5133 16.1677C65.503 16.1862 65.4902 16.1954 65.4747 16.1954C65.449 16.1954 65.4349 16.1822 65.4323 16.1558C65.4297 16.1294 65.4285 16.1004 65.4285 16.0687L65.4439 14.0002H64.9349V16.3302C64.9349 16.3698 64.9375 16.4167 64.9426 16.4709C64.9478 16.525 64.9626 16.5772 64.987 16.6274C65.0114 16.6776 65.0506 16.7198 65.1046 16.7542C65.1585 16.7886 65.2344 16.8057 65.3321 16.8057C65.4015 16.8057 65.4593 16.7978 65.5055 16.7819C65.5519 16.7661 65.5904 16.7456 65.6212 16.7205C65.6521 16.6954 65.6784 16.6677 65.7003 16.6373C65.7221 16.6069 65.742 16.5759 65.76 16.5442L66.8704 14.7015C66.8909 14.6698 66.909 14.6408 66.9244 14.6143C66.9398 14.588 66.9552 14.5747 66.9707 14.5747C66.9886 14.5747 66.9996 14.5846 67.0034 14.6044C67.0073 14.6242 67.0092 14.6448 67.0092 14.6659L66.99 16.774H67.5028ZM70.352 16.774V14.4361C70.352 14.3727 70.3468 14.3152 70.3366 14.2637C70.3262 14.2121 70.2955 14.1613 70.244 14.1111C70.1952 14.0636 70.1444 14.0332 70.0917 14.02C70.039 14.0068 69.9909 14.0002 69.9471 14.0002H68.6247C68.509 14.0002 68.4024 14.0147 68.3047 14.0438C68.207 14.0728 68.1235 14.1428 68.0541 14.2538C68.0233 14.304 67.9988 14.3561 67.9808 14.4103C67.9628 14.4644 67.95 14.5186 67.9423 14.5727C67.9346 14.6269 67.93 14.6797 67.9288 14.7313C67.9275 14.7828 67.9269 14.831 67.9269 14.8759C67.9269 14.9922 67.9333 15.107 67.9462 15.2207C67.959 15.3342 67.9924 15.4386 68.0464 15.5337C68.0926 15.6156 68.1556 15.6816 68.2353 15.7318C68.3149 15.782 68.4088 15.8071 68.5167 15.8071H68.8676V15.8229L67.8497 16.774H68.5052L69.4074 15.8665C69.4588 15.8137 69.4909 15.7669 69.5038 15.7259C69.5166 15.6849 69.523 15.6512 69.523 15.6249V15.5614C69.523 15.5191 69.5134 15.4868 69.4941 15.4643C69.4748 15.4419 69.4523 15.4254 69.4266 15.4148C69.401 15.4043 69.3752 15.3976 69.3495 15.395C69.3239 15.3924 69.3046 15.391 69.2917 15.391H68.7597C68.6979 15.391 68.6452 15.3771 68.6015 15.3494C68.5579 15.3217 68.5258 15.2893 68.5052 15.2524C68.4846 15.2207 68.4705 15.1771 68.4628 15.1216C68.4551 15.0661 68.4512 14.9895 68.4512 14.8918C68.4512 14.823 68.4557 14.7537 68.4647 14.6837C68.4737 14.6137 68.5001 14.5549 68.5438 14.5074C68.5849 14.4624 68.6286 14.4361 68.6748 14.4281C68.7211 14.4202 68.7648 14.4163 68.8059 14.4163H69.6541C69.6798 14.4163 69.7036 14.4182 69.7255 14.4222C69.7473 14.4262 69.7685 14.4387 69.7891 14.4598C69.8122 14.481 69.827 14.5041 69.8334 14.5292C69.8398 14.5543 69.843 14.5774 69.843 14.5985V16.774H70.352ZM72.1063 16.774V14.4163H73.1626V14.0002H70.5448V14.4163H71.5973V16.774H72.1063ZM75.9233 16.774V14.4678C75.9233 14.4334 75.9207 14.3878 75.9155 14.331C75.9104 14.2743 75.895 14.2194 75.8693 14.1666C75.8435 14.1137 75.8024 14.0675 75.7453 14.0279C75.6887 13.9883 75.6103 13.9685 75.5101 13.9685C75.4175 13.9685 75.3366 13.9896 75.2685 14.0319C75.2003 14.0741 75.1303 14.156 75.0577 14.2775L73.9685 16.1083C73.9556 16.1294 73.9441 16.1492 73.9338 16.1677C73.9235 16.1862 73.9106 16.1954 73.8952 16.1954C73.8695 16.1954 73.8554 16.1822 73.8528 16.1558C73.8502 16.1294 73.849 16.1004 73.849 16.0687L73.8644 14.0002H73.3555V16.3302C73.3555 16.3698 73.358 16.4167 73.3632 16.4709C73.3683 16.525 73.3831 16.5772 73.4075 16.6274C73.4319 16.6776 73.4711 16.7198 73.5251 16.7542C73.579 16.7886 73.6549 16.8057 73.7526 16.8057C73.822 16.8057 73.8798 16.7978 73.926 16.7819C73.9724 16.7661 74.0108 16.7456 74.0417 16.7205C74.0726 16.6954 74.0989 16.6677 74.1208 16.6373C74.1426 16.6069 74.1626 16.5759 74.1805 16.5442L75.2909 14.7015C75.3115 14.6698 75.3295 14.6408 75.3449 14.6143C75.3603 14.588 75.3757 14.5747 75.3912 14.5747C75.4091 14.5747 75.4201 14.5846 75.4239 14.6044C75.4278 14.6242 75.4297 14.6448 75.4297 14.6659L75.4104 16.774H75.9233ZM78.9537 16.774V14.4678C78.9537 14.4334 78.9512 14.3878 78.946 14.331C78.9408 14.2743 78.9254 14.2194 78.8997 14.1666C78.874 14.1137 78.8329 14.0675 78.7757 14.0279C78.7192 13.9883 78.6407 13.9685 78.5405 13.9685C78.448 13.9685 78.367 13.9896 78.2989 14.0319C78.2308 14.0741 78.1608 14.156 78.0881 14.2775L76.9989 16.1083C76.986 16.1294 76.9745 16.1492 76.9643 16.1677C76.954 16.1862 76.9411 16.1954 76.9256 16.1954C76.9 16.1954 76.8858 16.1822 76.8833 16.1558C76.8806 16.1294 76.8795 16.1004 76.8795 16.0687L76.8949 14.0002H76.3859V16.3302C76.3859 16.3698 76.3885 16.4167 76.3936 16.4709C76.3988 16.525 76.4136 16.5772 76.438 16.6274C76.4624 16.6776 76.5015 16.7198 76.5555 16.7542C76.6095 16.7886 76.6854 16.8057 76.7831 16.8057C76.8524 16.8057 76.9103 16.7978 76.9565 16.7819C77.0028 16.7661 77.0413 16.7456 77.0722 16.7205C77.103 16.6954 77.1294 16.6677 77.1513 16.6373C77.1731 16.6069 77.193 16.5759 77.211 16.5442L78.3214 14.7015C78.3419 14.6698 78.36 14.6408 78.3753 14.6143C78.3908 14.588 78.4062 14.5747 78.4216 14.5747C78.4396 14.5747 78.4505 14.5846 78.4544 14.6044C78.4583 14.6242 78.4602 14.6448 78.4602 14.6659L78.4409 16.774H78.9537ZM76.9026 13.3701C76.9231 13.4388 76.9552 13.5128 76.9989 13.592C77.0426 13.6713 77.0979 13.736 77.1647 13.7861C77.2238 13.8311 77.2958 13.8648 77.3806 13.8872C77.4654 13.9097 77.558 13.9209 77.6582 13.9209C77.7405 13.9209 77.8272 13.9117 77.9184 13.8932C78.0098 13.8747 78.0888 13.839 78.1556 13.7861C78.2225 13.736 78.2778 13.6713 78.3214 13.592C78.3651 13.5128 78.3972 13.4388 78.4178 13.3701H78.0515C78.0412 13.4045 78.0264 13.4368 78.0071 13.4672C77.9879 13.4976 77.9667 13.5233 77.9436 13.5445C77.8998 13.5814 77.853 13.6045 77.8028 13.6138C77.7527 13.623 77.7045 13.6277 77.6582 13.6277C77.6145 13.6277 77.5677 13.623 77.5175 13.6138C77.4674 13.6045 77.4204 13.5814 77.3768 13.5445C77.3537 13.5233 77.3325 13.4976 77.3132 13.4672C77.2938 13.4368 77.2791 13.4045 77.2688 13.3701H76.9026Z" fill="white"/>
</svg>
