<svg width="60" height="60" fill="none" xmlns="http://www.w3.org/2000/svg"><circle cx="30" cy="30" r="29.5" transform="matrix(-1 0 0 1 60 0)" fill="#fff" stroke="#fff"/><path d="M15 30.489a2.92 2.92 0 00.257 1.241c.176.39.435.735.758 1.011l12.993 11.06a.554.554 0 00.735-.106.567.567 0 00-.022-.75l-12.98-11.093a1.784 1.784 0 01-.58-.98.535.535 0 00.4.18h27.881a.56.56 0 00.395-.165.566.566 0 00-.395-.961h-27.88a.533.533 0 00-.402.18c.082-.382.285-.727.58-.98l12.981-11.094a.56.56 0 00.244-.39.57.57 0 00-.31-.586.553.553 0 00-.647.12l-12.993 11.06a2.893 2.893 0 00-.758 1.011A2.92 2.92 0 0015 30.49z" fill="#1D1D1D" stroke="#1D1D1D"/></svg>