<svg width="79" height="41" fill="none" xmlns="http://www.w3.org/2000/svg"><path d="M1.602 30.222l5.157 3.748v1.369H0v5.206h10.343c1.384 0 2.361-1.071 2.361-2.588v-4.73c0-1.666-.298-2.589-1.601-3.54l-5.158-3.779v-.952h5.836l.923-2.677v-2.558H2.39C.977 19.72 0 20.79 0 22.309v4.373c0 1.666.299 2.558 1.602 3.54zm20.165-5.266h2.362v3.898h-2.362v-3.898zm5.918 9.104c1.412 0 2.39-1.101 2.39-2.618v-9.133c0-1.517-.978-2.588-2.39-2.588H15.823v20.824h5.944v-6.486h5.918zm11.154-2.916l.543-6.188h.651l.543 6.188H38.84zm-4.072-11.423l-2.66 18.236v2.588h5.917l.38-4.195h2.606l.353 4.195h5.945v-2.588l-2.66-18.236h-9.881zm18.048 0c-1.411 0-2.389 1.07-2.389 2.588v15.648c0 1.517.978 2.588 2.39 2.588H63.13v-5.206h-6.76V24.956h5.837l.923-2.647V19.72H52.815zm26.138 20.824v-5.206h-6.786v-2.856h5.836v-5.206h-5.836v-2.32h5.836l.95-2.648V19.72H66.25v20.824h12.704zM2.44 8.03v2.958h3.11V8.03l2.44-6.534V.148H4.88L4.108 4.36H3.88L3.124.148H0v1.348L2.44 8.03zm10.936-5.156v5.404h-1.24V2.874h1.24zm1.87 8.114c.741 0 1.255-.558 1.255-1.348V1.496c0-.79-.514-1.348-1.256-1.348h-4.979c-.741 0-1.255.558-1.255 1.348V9.64c0 .79.514 1.348 1.255 1.348h4.98zm7.07-10.84v8.13h-1.241V.148h-3.124V9.64c0 .79.513 1.348 1.255 1.348h6.235V.148h-3.125zm8.94 2.726v2.028h-1.241V2.874h1.24zM26.89.148v10.84h3.125V7.612h.627l.842 3.376h3.053V9.64l-.984-2.663c.47-.14.827-.712.827-1.223V1.496c0-.79-.514-1.348-1.241-1.348H26.89z" fill="#fff"/><path d="M44.485 10.988v-2.71h-3.567V6.79h3.068V4.08h-3.068V2.874h3.068l.499-1.378V.148h-6.677v10.84h6.677zm2.96 0h4.694l1.583-9.957V.148h-3.11l-.642 8.13h-.357l-.642-8.13h-3.11v.883l1.584 9.957zm14.352 0v-2.71h-3.566V6.79h3.067V4.08H58.23V2.874h3.067l.5-1.378V.148H55.12v10.84h6.677zm6.043-5.823L66.385.148h-3.31v10.84h2.868V9.64l-.4-3.654h.243l1.47 5.002h3.309V.148h-2.882v1.348l.414 3.67h-.257zm5.992-2.291v8.114h3.125V2.873h1.498l.5-1.378V.148h-6.992v2.726h1.87z" fill="#ED2226"/><path fill-rule="evenodd" clip-rule="evenodd" d="M.015 12.187h78.932v.665H.015v-.665zm0 5.669h78.932v.664H.015v-.664z" fill="#fff"/><path d="M1.561 16.774v-2.358h1.057V14H0v.416h1.053v2.358h.508zM3.32 15.58h1.033a.34.34 0 01.187.042.339.339 0 01.087.073.3.3 0 01.048.139.875.875 0 01-.004.29.3.3 0 01-.056.134.228.228 0 01-.146.085.994.994 0 01-.15.014h-.803l-.083-.004a.117.117 0 01-.083-.04.14.14 0 01-.023-.057.554.554 0 01-.007-.105v-.57zm0-1.01c0-.016.002-.036.005-.06a.129.129 0 01.03-.063.075.075 0 01.053-.03.976.976 0 01.062-.002h.833c.043 0 .087.003.13.008a.199.199 0 01.12.063c.044.043.07.093.077.153.008.06.012.108.012.145a.67.67 0 01-.021.202.318.318 0 01-.037.079.195.195 0 01-.127.087.941.941 0 01-.15.012H3.32v-.595zm1.465.8v-.016a.367.367 0 00.137-.04.395.395 0 00.117-.102.494.494 0 00.108-.224 1.354 1.354 0 00.014-.375 1.117 1.117 0 00-.023-.158.83.83 0 00-.05-.155.49.49 0 00-.333-.275.64.64 0 00-.13-.022A1.932 1.932 0 004.507 14H3.181a.594.594 0 00-.145.02.266.266 0 00-.14.095.385.385 0 00-.064.13.567.567 0 00-.021.155v1.981c0 .08.012.142.036.189a.65.65 0 00.056.093c.054.063.112.098.174.103.061.005.126.008.193.008h1.29c.041 0 .083 0 .125-.002a.504.504 0 00.369-.177.543.543 0 00.135-.289 2.392 2.392 0 00.017-.416.903.903 0 00-.014-.129.49.49 0 00-.112-.244.483.483 0 00-.125-.096.422.422 0 00-.171-.05zm2.12-1.403c-.082 0-.17.002-.264.004a1.734 1.734 0 00-.283.032 1.347 1.347 0 00-.28.087.807.807 0 00-.248.17.778.778 0 00-.174.244 1.367 1.367 0 00-.092.285c-.021.1-.034.2-.039.302a5.857 5.857 0 00-.002.56c.004.098.015.198.035.3.019.101.05.201.092.299a.831.831 0 00.428.432c.091.04.185.068.282.087.096.018.191.029.285.032a9.085 9.085 0 00.519 0 1.78 1.78 0 00.287-.032c.096-.019.19-.048.281-.087a.808.808 0 00.415-.413c.04-.092.072-.188.092-.289a2.2 2.2 0 00.04-.303 4.653 4.653 0 00.003-.58 1.87 1.87 0 00-.04-.306 1.49 1.49 0 00-.095-.289.808.808 0 00-.414-.412 1.338 1.338 0 00-.282-.087 1.772 1.772 0 00-.285-.032 9.44 9.44 0 00-.26-.004zm-.863 1.419c0-.214.014-.38.044-.498.03-.117.07-.21.121-.279.08-.1.18-.163.301-.188.12-.025.252-.038.393-.038.14 0 .27.013.394.038a.508.508 0 01.366.287c.02.04.039.09.054.15.015.062.028.135.037.22.009.087.013.189.013.308 0 .11-.004.208-.013.293-.01.085-.022.157-.037.218a.922.922 0 01-.052.155.512.512 0 01-.203.231.655.655 0 01-.167.07.982.982 0 01-.19.03 3.41 3.41 0 01-.406 0 .95.95 0 01-.189-.03.66.66 0 01-.166-.07.45.45 0 01-.135-.124.53.53 0 01-.063-.105.853.853 0 01-.052-.155 1.647 1.647 0 01-.037-.218 2.787 2.787 0 01-.013-.295zm4.796 1.387v-.416H9.396a.824.824 0 01-.106-.006.112.112 0 01-.068-.03c-.025-.021-.038-.057-.038-.107v-.65h1.6v-.416h-1.6v-.559a.42.42 0 01.006-.067.125.125 0 01.104-.101.44.44 0 01.071-.006h1.457V14h-1.73a.974.974 0 00-.168.016.264.264 0 00-.157.09.391.391 0 00-.067.13.517.517 0 00-.025.16v1.966c0 .053.005.109.015.168.01.06.039.112.085.157.044.044.091.07.143.077.051.006.106.01.166.01h1.754zm3.882-2.358c.018 0 .039 0 .062.002a.086.086 0 01.062.034.1.1 0 01.029.063l.002.067v2.192h.509v-2.398a.601.601 0 00-.018-.142.293.293 0 00-.079-.135.275.275 0 00-.146-.085.886.886 0 00-.158-.014h-1.597a.83.83 0 00-.161.014.296.296 0 00-.143.085.307.307 0 00-.083.135.569.569 0 00-.017.142v2.398h.509v-2.192c0-.023.002-.048.007-.073a.113.113 0 01.027-.057c.018-.021.038-.033.06-.034a1.07 1.07 0 01.064-.002h1.071zm1.635 2.358v-.983h1.265a.71.71 0 00.227-.036.568.568 0 00.185-.099.483.483 0 00.128-.162.899.899 0 00.069-.2c.015-.07.026-.14.03-.21a2.568 2.568 0 00.003-.375 1.322 1.322 0 00-.027-.198.924.924 0 00-.062-.188.51.51 0 00-.11-.157.459.459 0 00-.133-.097.67.67 0 00-.281-.067 4.24 4.24 0 00-.122-.002h-1.284a.679.679 0 00-.154.02.303.303 0 00-.15.087.273.273 0 00-.081.15 1.098 1.098 0 00-.012.159v2.358h.51zm0-1.4v-.792c0-.023.002-.046.004-.069a.105.105 0 01.03-.061c.021-.021.042-.033.063-.034a.919.919 0 01.057-.002h.822c.043 0 .096.005.158.014a.27.27 0 01.158.081.31.31 0 01.08.178 1.475 1.475 0 01.003.397.682.682 0 01-.027.1.259.259 0 01-.049.086.24.24 0 01-.156.091c-.06.008-.119.012-.175.012h-.968zm3.609-1.406c-.082 0-.17.002-.264.004a1.733 1.733 0 00-.284.032 1.348 1.348 0 00-.28.087.808.808 0 00-.248.17.777.777 0 00-.173.244 1.357 1.357 0 00-.093.285c-.02.1-.033.2-.038.302a5.896 5.896 0 00-.002.56c.004.098.015.198.034.3.02.101.05.201.093.299a.833.833 0 00.428.432c.091.04.185.068.282.087.096.018.19.029.285.032a9.089 9.089 0 00.518 0 1.78 1.78 0 00.287-.032 1.33 1.33 0 00.282-.087.806.806 0 00.415-.413c.04-.092.071-.188.092-.289.02-.1.034-.201.04-.303a4.648 4.648 0 00.002-.58 1.86 1.86 0 00-.04-.306 1.495 1.495 0 00-.095-.289.806.806 0 00-.415-.412 1.336 1.336 0 00-.28-.087 1.772 1.772 0 00-.286-.032 9.442 9.442 0 00-.26-.004zm-.864 1.419c0-.214.015-.38.045-.498.03-.117.07-.21.121-.279.08-.1.18-.163.3-.188.122-.025.253-.038.394-.038.139 0 .27.013.393.038a.507.507 0 01.367.287.8.8 0 01.054.15c.015.062.027.135.036.22.01.087.014.189.014.308 0 .11-.005.208-.014.293a1.56 1.56 0 01-.036.218.921.921 0 01-.052.155.515.515 0 01-.203.231.657.657 0 01-.167.07.981.981 0 01-.19.03 3.413 3.413 0 01-.406 0 .95.95 0 01-.19-.03.66.66 0 01-.165-.07.45.45 0 01-.135-.124.533.533 0 01-.063-.105.846.846 0 01-.052-.155 1.637 1.637 0 01-.037-.218 2.788 2.788 0 01-.014-.295zm4.827 1.387v-.416h-.913c-.16 0-.3-.017-.42-.052a.488.488 0 01-.328-.297.778.778 0 01-.043-.13 1.444 1.444 0 01-.03-.193 2.67 2.67 0 01-.012-.268c0-.205.015-.366.044-.48a.86.86 0 01.106-.264.5.5 0 01.133-.14.606.606 0 01.166-.078.825.825 0 01.195-.034c.07-.004.141-.006.216-.006h.844V14h-1.083c-.05 0-.11.003-.182.008a1.137 1.137 0 00-.478.148.903.903 0 00-.36.42 1.34 1.34 0 00-.08.266 2.33 2.33 0 00-.036.29 4.58 4.58 0 00-.002.542c.005.089.017.178.035.268.018.09.045.178.08.265a.878.878 0 00.354.414.986.986 0 00.223.1c.076.022.151.036.226.043.074.006.144.01.208.01h1.137zm1.639 0v-2.358h1.056V14h-2.617v.416h1.052v2.358h.509zm1.758 0v-.983h1.265a.71.71 0 00.227-.036.57.57 0 00.185-.099.485.485 0 00.128-.162.888.888 0 00.069-.2c.015-.07.026-.14.03-.21a2.568 2.568 0 00.003-.375 1.322 1.322 0 00-.027-.198.912.912 0 00-.062-.188.51.51 0 00-.11-.157.459.459 0 00-.133-.097.675.675 0 00-.281-.067 4.233 4.233 0 00-.122-.002h-1.284a.677.677 0 00-.154.02.304.304 0 00-.15.087.274.274 0 00-.081.15 1.098 1.098 0 00-.012.159v2.358h.51zm0-1.4v-.792c0-.023.002-.046.004-.069a.105.105 0 01.03-.061c.021-.021.042-.033.063-.034a.925.925 0 01.058-.002h.82c.044 0 .097.005.159.014a.27.27 0 01.158.081c.044.045.07.105.08.178a1.491 1.491 0 01.003.397.695.695 0 01-.027.1.259.259 0 01-.049.086.24.24 0 01-.156.091 1.32 1.32 0 01-.175.012h-.968zm1.951 1.4h.536l.274-.702h1.3l.277.702h.536L31.18 14.28a.55.55 0 00-.172-.243.465.465 0 00-.272-.07.462.462 0 00-.275.07.569.569 0 00-.168.243l-1.018 2.493zm1.384-2.204a1 1 0 01.031-.073c.013-.027.028-.041.046-.041s.034.014.047.041a1 1 0 01.03.073l.44 1.13h-1.037l.443-1.13zm4.076-.57h-.51v1.137h-1.403V14h-.509v2.774h.51v-1.22h1.403v1.22h.509V14zm2.656 2.774v-.416h-.914c-.16 0-.3-.017-.42-.052a.488.488 0 01-.328-.297.778.778 0 01-.042-.13 1.443 1.443 0 01-.031-.193 2.67 2.67 0 01-.012-.268c0-.205.015-.366.045-.48a.861.861 0 01.106-.264.504.504 0 01.133-.14.606.606 0 01.166-.078.824.824 0 01.194-.034c.07-.004.142-.006.216-.006h.845V14h-1.084c-.049 0-.109.003-.181.008a1.137 1.137 0 00-.478.148.897.897 0 00-.36.42 1.334 1.334 0 00-.08.266 2.33 2.33 0 00-.036.29 4.51 4.51 0 00-.002.542c.005.089.017.178.035.268.018.09.045.178.08.265a.878.878 0 00.353.414.988.988 0 00.224.1c.076.022.15.036.225.043.075.006.144.01.209.01h1.137zm1.639 0v-2.358h1.056V14h-2.618v.416h1.053v2.358h.509zm1.758-1.193h1.033a.34.34 0 01.187.042.339.339 0 01.087.073.3.3 0 01.048.139.887.887 0 01-.004.29.301.301 0 01-.056.134.228.228 0 01-.146.085.993.993 0 01-.15.014h-.803l-.083-.004a.117.117 0 01-.082-.04.14.14 0 01-.024-.057.556.556 0 01-.007-.105v-.57zm0-1.01a.38.38 0 01.006-.06.128.128 0 01.029-.063.075.075 0 01.053-.03.978.978 0 01.062-.002h.833c.044 0 .087.003.131.008a.199.199 0 01.12.063.259.259 0 01.077.153c.007.06.011.108.011.145a.671.671 0 01-.021.202.318.318 0 01-.037.079.195.195 0 01-.127.087.94.94 0 01-.15.012h-.987v-.595zm1.465.8v-.016a.367.367 0 00.137-.04.395.395 0 00.117-.102.496.496 0 00.108-.224 1.357 1.357 0 00.014-.375 1.126 1.126 0 00-.023-.158.824.824 0 00-.05-.155.49.49 0 00-.334-.275.64.64 0 00-.13-.022 1.928 1.928 0 00-.117-.004H40.65a.594.594 0 00-.145.02.266.266 0 00-.14.095.386.386 0 00-.064.13.565.565 0 00-.021.155v1.981c0 .08.012.142.036.189a.669.669 0 00.056.093c.054.063.112.098.174.103.061.005.126.008.193.008h1.291c.041 0 .083 0 .126-.002a.505.505 0 00.368-.177.542.542 0 00.135-.289 2.385 2.385 0 00.017-.416.899.899 0 00-.014-.129.489.489 0 00-.112-.244.485.485 0 00-.124-.096.423.423 0 00-.172-.05zm2.12-1.403c-.082 0-.17.002-.264.004a1.734 1.734 0 00-.283.032 1.35 1.35 0 00-.28.087.808.808 0 00-.248.17.777.777 0 00-.174.244 1.363 1.363 0 00-.092.285c-.02.1-.034.2-.039.302a5.776 5.776 0 00-.002.56c.004.098.016.198.035.3.02.101.05.201.092.299a.833.833 0 00.428.432c.092.04.185.068.282.087.096.018.191.029.285.032a9.071 9.071 0 00.519 0c.095-.003.19-.014.287-.032.096-.019.19-.048.281-.087a.808.808 0 00.415-.413c.041-.092.072-.188.092-.289.021-.1.035-.201.04-.303a4.645 4.645 0 00.003-.58 1.86 1.86 0 00-.04-.306 1.488 1.488 0 00-.095-.289.808.808 0 00-.414-.412 1.34 1.34 0 00-.282-.087 1.774 1.774 0 00-.285-.032 9.449 9.449 0 00-.26-.004zm-.863 1.419c0-.214.015-.38.044-.498.03-.117.07-.21.121-.279.08-.1.18-.163.301-.188.121-.025.252-.038.394-.038.138 0 .27.013.393.038a.508.508 0 01.366.287c.02.04.039.09.054.15.016.062.028.135.037.22a3 3 0 01.013.308c0 .11-.004.208-.013.293a1.577 1.577 0 01-.037.218.93.93 0 01-.052.155.515.515 0 01-.202.231.654.654 0 01-.168.07.979.979 0 01-.189.03 3.412 3.412 0 01-.407 0 .95.95 0 01-.189-.03.66.66 0 01-.166-.07.452.452 0 01-.135-.124.528.528 0 01-.063-.105.854.854 0 01-.052-.155 1.67 1.67 0 01-.037-.218 2.82 2.82 0 01-.013-.295zm6.288-.765a.32.32 0 01.027-.057c.013-.023.026-.034.039-.034.007 0 .017.005.029.014.011.01.017.032.017.07l-.015 2.159h.508v-2.441c0-.127-.04-.22-.123-.278a.528.528 0 00-.312-.087.772.772 0 00-.14.012.366.366 0 00-.126.05.413.413 0 00-.114.107.715.715 0 00-.094.188l-.698 1.85a.72.72 0 01-.037.074c-.011.02-.024.03-.037.03-.012 0-.025-.01-.036-.03a.722.722 0 01-.037-.074l-.698-1.85a1.175 1.175 0 00-.061-.137.445.445 0 00-.087-.115.358.358 0 00-.131-.077.593.593 0 00-.195-.028c-.02 0-.054.002-.102.006a.407.407 0 00-.145.042.38.38 0 00-.13.109.329.329 0 00-.059.208v2.44h.51l-.012-2.159.006-.045c.003-.026.016-.038.036-.038.013 0 .026.011.039.034a.319.319 0 01.027.057l.69 1.85c.015.046.032.088.05.127.018.04.041.075.07.105.028.03.063.055.105.074a.404.404 0 00.16.027.46.46 0 00.15-.021.269.269 0 00.105-.066.38.38 0 00.071-.105c.02-.04.04-.087.06-.14l.69-1.85zm3.231 2.152v-.416h-1.442a.823.823 0 01-.106-.006.112.112 0 01-.067-.03c-.026-.021-.039-.057-.039-.107v-.65h1.6v-.416h-1.6v-.559c0-.02.002-.043.006-.067a.126.126 0 01.104-.101.441.441 0 01.071-.006h1.458V14h-1.732a.974.974 0 00-.167.016.264.264 0 00-.156.09.391.391 0 00-.068.13.514.514 0 00-.025.16v1.966c0 .053.005.109.016.168a.28.28 0 00.084.157c.044.044.092.07.143.077.051.006.107.01.166.01h1.754zm.856.001v-.983h1.265a.72.72 0 00.227-.035.57.57 0 00.185-.1.485.485 0 00.127-.162.89.89 0 00.07-.2c.015-.07.026-.14.03-.21a2.564 2.564 0 00.002-.374 1.322 1.322 0 00-.026-.199.918.918 0 00-.062-.188.51.51 0 00-.11-.156.457.457 0 00-.133-.098.672.672 0 00-.282-.067 3.92 3.92 0 00-.121-.002h-1.284a.685.685 0 00-.154.02.304.304 0 00-.15.087.274.274 0 00-.081.15 1.098 1.098 0 00-.012.16v2.357h.509zm0-1.399v-.792c0-.024.001-.047.004-.07a.105.105 0 01.03-.061c.021-.021.042-.033.062-.034a.915.915 0 01.058-.002h.821c.044 0 .097.005.159.014a.27.27 0 01.157.081.31.31 0 01.081.179 1.461 1.461 0 01.002.396.69.69 0 01-.026.101.26.26 0 01-.049.085.24.24 0 01-.156.091c-.06.008-.119.012-.175.012h-.968zm3.609-1.406c-.083 0-.17 0-.264.003a1.746 1.746 0 00-.284.032 1.349 1.349 0 00-.28.087.811.811 0 00-.248.17.778.778 0 00-.173.244 1.363 1.363 0 00-.093.286c-.02.099-.033.2-.038.3a5.785 5.785 0 00-.002.562c.003.097.015.197.034.299.02.101.05.201.093.299a.835.835 0 00.428.432c.091.04.185.069.281.087.097.019.192.03.285.032a9.077 9.077 0 00.519 0c.095-.003.19-.013.287-.032.097-.018.19-.047.282-.087a.81.81 0 00.414-.412c.041-.093.072-.19.093-.29.02-.1.034-.201.04-.303a4.653 4.653 0 00.002-.58 1.883 1.883 0 00-.04-.305 1.495 1.495 0 00-.095-.29.81.81 0 00-.414-.412 1.338 1.338 0 00-.282-.087 1.784 1.784 0 00-.285-.032 9.443 9.443 0 00-.26-.003zm-.864 1.418c0-.214.015-.38.044-.497.03-.118.07-.21.122-.28.08-.1.18-.163.3-.188.121-.025.253-.038.394-.038.139 0 .27.013.393.038a.507.507 0 01.366.287c.021.04.039.09.054.151.016.06.028.134.037.22.01.086.013.188.013.307 0 .111-.004.209-.013.293a1.562 1.562 0 01-.037.218.93.93 0 01-.052.155.51.51 0 01-.202.232.657.657 0 01-.168.069.981.981 0 01-.189.03 3.412 3.412 0 01-.407 0 .95.95 0 01-.188-.03.662.662 0 01-.166-.07.449.449 0 01-.135-.124.527.527 0 01-.064-.105.843.843 0 01-.052-.155 1.65 1.65 0 01-.036-.218 2.79 2.79 0 01-.014-.295zm4.372-.97l.062.001a.086.086 0 01.062.034.1.1 0 01.029.063l.002.068v2.191h.508v-2.397a.601.601 0 00-.017-.143.292.292 0 00-.079-.135.273.273 0 00-.147-.085.886.886 0 00-.158-.014h-1.596a.831.831 0 00-.162.014.294.294 0 00-.142.085.308.308 0 00-.083.135.569.569 0 00-.018.143v2.397h.51v-2.191c0-.024.002-.049.007-.074a.113.113 0 01.027-.057c.018-.021.038-.033.06-.034a1.07 1.07 0 01.063-.002h1.072zm1.635 2.357v-.983h1.265a.72.72 0 00.227-.035.57.57 0 00.185-.1.485.485 0 00.127-.162.89.89 0 00.07-.2c.015-.07.026-.14.03-.21a2.564 2.564 0 00.003-.374 1.322 1.322 0 00-.027-.199.918.918 0 00-.062-.188.508.508 0 00-.11-.156.457.457 0 00-.133-.098.672.672 0 00-.281-.067 3.92 3.92 0 00-.122-.002h-1.284a.685.685 0 00-.154.02.304.304 0 00-.15.087.274.274 0 00-.081.15 1.098 1.098 0 00-.012.16v2.357h.509zm0-1.399v-.792c0-.024.001-.047.004-.07a.105.105 0 01.03-.061c.021-.021.042-.033.063-.034a.915.915 0 01.057-.002h.822c.043 0 .096.005.158.014a.27.27 0 01.158.081.31.31 0 01.08.179 1.461 1.461 0 01.002.396.678.678 0 01-.026.101.26.26 0 01-.049.085.24.24 0 01-.156.091c-.06.008-.119.012-.175.012h-.968zm4.866 1.399v-2.306c0-.035-.003-.08-.008-.137a.47.47 0 00-.046-.164.363.363 0 00-.124-.14.405.405 0 00-.235-.058.45.45 0 00-.242.063.717.717 0 00-.21.245l-1.09 1.831-.035.06c-.01.018-.023.027-.038.027-.026 0-.04-.013-.043-.04a.894.894 0 01-.004-.086L65.445 14h-.51v2.33c0 .04.004.087.009.14.005.055.02.107.044.157a.31.31 0 00.118.127c.053.035.13.052.227.052a.54.54 0 00.174-.024.37.37 0 00.194-.145.92.92 0 00.06-.093l1.11-1.843c.02-.031.039-.06.054-.087.016-.026.031-.04.047-.04.018 0 .029.01.032.03a.31.31 0 01.006.062l-.019 2.108h.513zm2.849 0v-2.338a.89.89 0 00-.015-.172.3.3 0 00-.093-.153.339.339 0 00-.152-.091.599.599 0 00-.145-.02h-1.322c-.116 0-.223.015-.32.044a.453.453 0 00-.25.21.752.752 0 00-.074.156.928.928 0 00-.039.163 1.35 1.35 0 00-.013.158 3.054 3.054 0 00.017.49.811.811 0 00.1.313.517.517 0 00.47.273h.352v.016l-1.018.951h.655l.902-.908a.384.384 0 00.097-.14.355.355 0 00.019-.101v-.064a.148.148 0 00-.029-.097.178.178 0 00-.067-.05.276.276 0 00-.078-.019.634.634 0 00-.057-.004h-.532a.29.29 0 01-.255-.139.322.322 0 01-.042-.13 1.766 1.766 0 01.002-.438.312.312 0 01.079-.177.233.233 0 01.13-.079.78.78 0 01.132-.012h.848c.026 0 .05.002.072.006a.12.12 0 01.063.038.142.142 0 01.044.07c.007.024.01.047.01.069v2.175h.509zm1.754 0v-2.358h1.057V14h-2.618v.416h1.052v2.358h.51zm3.817 0v-2.306c0-.035-.002-.08-.008-.137a.47.47 0 00-.046-.164.364.364 0 00-.124-.14.405.405 0 00-.235-.058.45.45 0 00-.242.063.717.717 0 00-.21.245l-1.09 1.831-.034.06c-.01.018-.023.027-.039.027-.025 0-.04-.013-.042-.04a.894.894 0 01-.004-.086L73.864 14h-.508v2.33c0 .04.002.087.007.14.005.055.02.107.044.157.025.05.064.093.118.127.054.035.13.052.228.052a.54.54 0 00.173-.024.371.371 0 00.195-.145.92.92 0 00.06-.093l1.11-1.843.054-.087c.015-.026.03-.04.046-.04.018 0 .03.01.033.03a.31.31 0 01.006.062l-.02 2.108h.513zm3.03 0v-2.306c0-.035-.002-.08-.007-.137a.472.472 0 00-.046-.164.362.362 0 00-.124-.14.405.405 0 00-.236-.058.45.45 0 00-.241.063.719.719 0 00-.21.245l-1.09 1.831-.035.06c-.01.018-.023.027-.038.027-.026 0-.04-.013-.043-.04a.864.864 0 01-.004-.086L76.895 14h-.51v2.33c0 .04.003.087.009.14.005.055.02.107.044.157.024.05.063.093.117.127.054.035.13.052.228.052a.54.54 0 00.174-.024.372.372 0 00.194-.145.92.92 0 00.06-.093l1.11-1.843c.02-.031.039-.06.054-.087.016-.026.031-.04.047-.04.018 0 .029.01.032.03a.31.31 0 01.006.062l-.02 2.108h.514zm-2.05-3.404c.02.069.052.143.096.222a.594.594 0 00.382.295c.084.023.177.034.277.034.082 0 .17-.01.26-.028a.599.599 0 00.403-.301c.044-.08.076-.153.097-.222h-.367a.388.388 0 01-.107.175.302.302 0 01-.141.069.801.801 0 01-.285 0 .302.302 0 01-.205-.147.384.384 0 01-.044-.097h-.366z" fill="#fff"/></svg>